<?xml version="1.0" encoding="UTF-8"?>
<svg xmlns="http://www.w3.org/2000/svg" viewBox="0 0 1600 600" role="img" aria-labelledby="title desc">
  <title>Modern logistics emblem</title>
  <desc>Stylized white line-art emblem combining truck, containers, port crane, route lines, and geometric decor with a right-side safe area.</desc>

  <!-- Global styles -->
  <defs>
    <style>
      .stroke { stroke: #FFFFFF; fill: none; stroke-linecap: round; stroke-linejoin: round; }
      .bold { stroke-width: 6; }
      .med { stroke-width: 4; }
      .thin { stroke-width: 2; }
      .muted { opacity: .7; }
      .faint { opacity: .35; }
      .fillw { fill: #FFFFFF; stroke: none; }
      .fillw-soft { fill: #FFFFFF; opacity:.08; stroke: none; }
      .dash { stroke-dasharray: 12 10; }
    </style>
  </defs>

  <!-- Optional animations (commented). Uncomment to enable. -->
  <!--
  <style>
    @keyframes drawRoute { from { stroke-dashoffset: 300; } to { stroke-dashoffset: 0; } }
    #decor-route { stroke-dasharray: 12 10; stroke-dashoffset: 300; animation: drawRoute 2.5s ease-out forwards; }
    @keyframes liftContainer { 0% { transform: translateY(12px);} 100% { transform: translateY(0);} }
    #containers .lift { transform-origin: center; animation: liftContainer 1.6s ease-in-out alternate infinite; }
  </style>
  -->

  <!-- Safe area on the right for layout integration -->
  <g id="safe-area" class="faint">
    <rect x="1000" y="40" width="560" height="520" class="stroke thin" />
  </g>

  <!-- Background decorative shapes (left side only) -->
  <g id="decor">
    <!-- Geometric waves -->
    <path class="stroke thin faint" d="M40 510 C 140 470, 220 540, 320 500 S 520 520, 640 480"/>
    <path class="stroke thin faint" d="M60 540 C 160 500, 240 570, 340 530 S 540 550, 660 510"/>
    <!-- Simple skyline blocks -->
    <g class="faint">
      <rect x="120" y="340" width="28" height="80" class="fillw-soft"/>
      <rect x="160" y="320" width="22" height="100" class="fillw-soft"/>
      <rect x="195" y="355" width="18" height="65" class="fillw-soft"/>
      <rect x="230" y="305" width="20" height="115" class="fillw-soft"/>
      <rect x="265" y="335" width="24" height="85" class="fillw-soft"/>
    </g>
    <!-- Palm/leaf-like strokes for balance -->
    <g class="muted">
      <path class="stroke thin" d="M740 210 q-18 -18 -46 -22"/>
      <path class="stroke thin" d="M735 225 q-24 -22 -60 -26"/>
      <path class="stroke thin" d="M752 220 q8 -32 -10 -64"/>
      <path class="stroke thin" d="M765 230 q18 -24 12 -58"/>
    </g>
  </g>

  <!-- Port crane / warehouse silhouette -->
  <g id="crane">
    <!-- Base frame -->
    <path class="stroke bold" d="M520 210 L680 210 L720 300 L560 300 Z"/>
    <path class="stroke med" d="M600 210 L640 300"/>
    <!-- Boom -->
    <path class="stroke med" d="M680 210 L820 150"/>
    <circle cx="820" cy="150" r="6" class="fillw"/>
    <!-- Cable and hook -->
    <path class="stroke med" d="M820 150 v80"/>
    <path class="stroke med" d="M820 230 q0 18 16 18"/>
    <circle cx="842" cy="248" r="6" class="fillw"/>
  </g>

  <!-- Containers stack -->
  <g id="containers">
    <rect x="360" y="300" width="150" height="90" rx="6" class="stroke med"/>
    <rect x="515" y="300" width="150" height="90" rx="6" class="stroke med"/>
    <rect x="435" y="210" width="150" height="90" rx="6" class="stroke med lift"/>
    <!-- Vertical ribs -->
    <g class="muted">
      <path class="stroke thin" d="M390 300 v90"/>
      <path class="stroke thin" d="M420 300 v90"/>
      <path class="stroke thin" d="M545 300 v90"/>
      <path class="stroke thin" d="M575 300 v90"/>
      <path class="stroke thin" d="M470 210 v90"/>
      <path class="stroke thin" d="M500 210 v90"/>
    </g>
  </g>

  <!-- Truck group (side view) -->
  <g id="truck">
    <!-- Trailer (container) -->
    <rect x="140" y="360" width="360" height="110" rx="8" class="stroke bold"/>
    <g class="muted">
      <path class="stroke thin" d="M175 360 v110"/>
      <path class="stroke thin" d="M205 360 v110"/>
      <path class="stroke thin" d="M235 360 v110"/>
      <path class="stroke thin" d="M265 360 v110"/>
      <path class="stroke thin" d="M295 360 v110"/>
      <path class="stroke thin" d="M325 360 v110"/>
      <path class="stroke thin" d="M355 360 v110"/>
      <path class="stroke thin" d="M385 360 v110"/>
      <path class="stroke thin" d="M415 360 v110"/>
    </g>

    <!-- Chassis line -->
    <path class="stroke med" d="M160 470 H520"/>

    <!-- Cab -->
    <path class="stroke bold" d="M520 470 h80 v-48 c0 -14 -10 -22 -22 -24 l-48 -6 v78 z"/>
    <path class="stroke med" d="M540 420 h30 v28 h-30 z"/>

    <!-- Wheels -->
    <circle cx="240" cy="490" r="28" class="stroke bold"/>
    <circle cx="240" cy="490" r="12" class="stroke med"/>
    <circle cx="420" cy="490" r="28" class="stroke bold"/>
    <circle cx="420" cy="490" r="12" class="stroke med"/>
    <circle cx="560" cy="490" r="24" class="stroke bold"/>
    <circle cx="560" cy="490" r="10" class="stroke med"/>
  </g>

  <!-- Motion / route lines -->
  <g id="route">
    <path id="decor-route" class="stroke med dash" d="M120 420 C 200 360, 300 360, 420 400 S 700 480, 880 380"/>
    <path class="stroke thin muted" d="M130 445 C 260 380, 380 410, 520 430 S 760 470, 900 410"/>
    <!-- Directional arrows -->
    <path class="stroke med" d="M870 386 l28 -6 l-14 24"/>
    <path class="stroke med" d="M410 402 l26 -8 l-10 24"/>
  </g>

  <!-- Accent dots / stars -->
  <g class="muted" id="accents">
    <circle cx="700" cy="180" r="3" class="fillw"/>
    <circle cx="760" cy="160" r="3" class="fillw"/>
    <circle cx="820" cy="200" r="3" class="fillw"/>
    <circle cx="880" cy="170" r="3" class="fillw"/>
  </g>

</svg>